<?xml version="1.0" encoding="UTF-8" standalone="no"?><!DOCTYPE svg PUBLIC "-//W3C//DTD SVG 1.1//EN" "http://www.w3.org/Graphics/SVG/1.1/DTD/svg11.dtd">
<svg width="100%" height="100%" viewBox="0 0 400 600" version="1.1" xmlns="http://www.w3.org/2000/svg" xmlns:xlink="http://www.w3.org/1999/xlink" xml:space="preserve" style="fill-rule:evenodd;clip-rule:evenodd;stroke-linejoin:round;stroke-miterlimit:1.41421;"><g transform="matrix(1,0,0,1,0,-20)">
<style type="text/css">
@import "/css/fonts-temp.css";
text { font-family: "Literata"; font-size: 14px; }
</style>


<text x="20px" y="50.724px">beca<tspan x="49.974px " y="50.724px ">u</tspan>se <tspan x="78.278px " y="50.724px ">o</tspan>f <tspan x="97.734px " y="50.724px ">t</tspan>he <tspan x="125.759px " y="50.724px ">b</tspan>ig <tspan x="152.551px " y="50.724px ">s</tspan>liding <tspan x="204.361px " y="50.724px ">d</tspan>oor<tspan x="235.315px 239.907px 245.727px " y="50.724px 50.724px 50.724px ">, o</tspan>f <tspan x="265.183px " y="50.724px ">t</tspan>he <tspan x="293.208px " y="50.724px ">t</tspan>ype <tspan x="328.61px " y="50.724px ">o</tspan>f <tspan x="348.066px " y="50.724px ">b</tspan>arn</text><text x="20px" y="71.724px">door<tspan x="50.954px 55.546px 60.815px " y="71.724px 71.724px 71.724px ">, a</tspan>nd <tspan x="91.494px " y="71.724px ">t</tspan>hr<tspan x="112.9px " y="71.724px ">o</tspan>ug<tspan x="137.596px 146.864px 152.133px " y="71.724px 71.724px 71.724px ">h t</tspan>his <tspan x="183.316px 191.394px " y="71.724px 71.724px ">op</tspan>en <tspan x="221.864px " y="71.724px ">d</tspan>oor <tspan x="258.787px 266.333px 272.815px 280.095px 285.364px " y="71.724px 71.724px 71.724px 71.724px 71.724px ">are s</tspan>een <tspan x="320.789px " y="71.724px ">t</tspan>he <tspan x="348.262px " y="71.724px ">s</tspan>and</text><text x="20px" y="92.724px">d<tspan x="28.456px " y="92.724px ">u</tspan>nes, <tspan x="68.822px " y="92.724px ">a</tspan>nd <tspan x="98.253px 106.751px 113.821px 121.535px " y="92.724px 92.724px 92.724px 92.724px ">beyo</tspan>nd <tspan x="151.639px " y="92.724px ">t</tspan>hem <tspan x="191.444px " y="92.724px ">t</tspan>he <tspan x="217.67px 229.5px " y="92.724px 92.724px ">wo</tspan>ods. <tspan x="269.543px 279.203px 284.859px 288.881px " y="92.724px 92.724px 92.724px 92.724px ">At o</tspan>ne <tspan x="317.668px " y="92.724px ">p</tspan>oin<tspan x="348.118px 353.774px 357.796px " y="92.724px 92.724px 92.724px ">t t</tspan>he</text><text x="20px" y="113.724px">line <tspan x="50.718px 62.478px " y="113.724px 113.724px ">wh</tspan>er<tspan x="85.508px 92.788px 97.634px 109.464px " y="113.724px 113.724px 113.724px 113.724px ">e wo</tspan>ods <tspan x="145.671px " y="113.724px ">a</tspan>nd <tspan x="175.927px 184.383px " y="113.724px 113.724px ">du</tspan>nes <tspan x="220.981px " y="113.724px ">m</tspan>ee<tspan x="248.911px 254.567px 259.414px 265.602px " y="113.724px 113.724px 113.724px 113.724px ">t st</tspan>ands <tspan x="307.842px 315.99px 324.53px 330.186px 335.032px 341.934px 346.456px " y="113.724px 113.724px 113.724px 113.724px 113.724px 113.724px 113.724px ">out cle</tspan>ar<tspan x="367.624px 371.936px " y="113.724px 113.724px ">ly</tspan></text><text x="20px" y="134.724px">and ther<tspan x="76.853px " y="134.724px ">e</tspan> ar<tspan x="100.918px " y="134.724px ">e</tspan> indica<tspan x="152.338px " y="134.724px ">t</tspan>ed <tspan x="176.557px " y="134.724px ">t</tspan>he rude thing<tspan x="272.049px " y="134.724px ">s</tspan>, vines, b<tspan x="337.328px " y="134.724px ">u</tspan>shes,</text><text x="20px" y="155.724px">w<tspan x="31.76px " y="155.724px ">h</tspan>ich <tspan x="66.393px 71.671px " y="155.724px 155.724px ">fo</tspan>rm <tspan x="104.624px " y="155.724px ">t</tspan>he <tspan x="131.361px 139.509px 148.049px " y="155.724px 155.724px 155.724px ">out</tspan>er <tspan x="172.07px " y="155.724px ">u</tspan>ne<tspan x="197.284px 205.222px " y="155.724px 155.724px ">ve</tspan>n <tspan x="226.303px " y="155.724px ">r</tspan>im <tspan x="255.7px " y="155.724px ">o</tspan>f <tspan x="273.869px " y="155.724px ">t</tspan>he <tspan x="300.606px 312.436px " y="155.724px 155.724px ">wo</tspan>ods—the</text><text x="20px" y="176.724px">onl<tspan x="41.798px 49.862px 53.869px " y="176.724px 176.724px 176.724px ">y t</tspan>hing<tspan x="90.269px 96.597px 100.604px " y="176.724px 176.724px 176.724px ">s t</tspan>ha<tspan x="122.724px 128.38px 132.388px 140.2px 146.682px 154.76px 166.8px 170.807px " y="176.724px 176.724px 176.724px 176.724px 176.724px 176.724px 176.724px 176.724px ">t grow i</tspan>n <tspan x="188.744px " y="176.724px ">t</tspan>he <tspan x="214.955px " y="176.724px ">s</tspan>and. <tspan x="255.362px 265.022px 270.678px 274.686px " y="176.724px 176.724px 176.724px 176.724px ">At a</tspan>no<tspan x="299.508px " y="176.724px ">t</tspan>her <tspan x="332.341px " y="176.724px ">p</tspan>oin<tspan x="362.791px 368.447px 372.454px " y="176.724px 176.724px 176.724px ">t a</tspan></text><text x="20px" y="197.724px">sand-hill <tspan x="84.353px " y="197.724px ">i</tspan>s <tspan x="99.747px " y="197.724px ">m</tspan>enacing <tspan x="170.568px " y="197.724px ">t</tspan>he <tspan x="197.176px 209.006px " y="197.724px 197.724px ">wo</tspan>ods. <tspan x="249.433px 259.625px " y="197.724px 197.724px ">Th</tspan>is <tspan x="284.287px 292.295px 296.817px 305.413px 309.818px " y="197.724px 197.724px 197.724px 197.724px 197.724px ">old l</tspan>if<tspan x="324.42px " y="197.724px ">e</tspan>-sa<tspan x="349.97px " y="197.724px ">v</tspan>ing</text><text x="20px" y="218.724px">s<tspan x="26.188px 31.844px 39.04px " y="218.724px 218.724px 218.724px ">tat</tspan>ion <tspan x="71.012px " y="218.724px ">i</tspan>s <tspan x="86.17px 93.366px 99.022px 103.191px 110.737px 114.905px " y="218.724px 218.724px 218.724px 218.724px 218.724px 218.724px ">at a p</tspan>oin<tspan x="145.355px 151.011px 155.179px 166.939px " y="218.724px 218.724px 218.724px 218.724px ">t wh</tspan>er<tspan x="189.969px 197.249px 201.417px " y="218.724px 218.724px 218.724px ">e t</tspan>he <tspan x="227.789px " y="218.724px ">s</tspan>ea <tspan x="253.112px " y="218.724px ">c</tspan>urv<tspan x="283.548px " y="218.724px ">e</tspan>s, <tspan x="305.916px " y="218.724px ">s</tspan>o <tspan x="324.63px " y="218.724px ">t</tspan>hr<tspan x="346.036px " y="218.724px ">o</tspan>ug<tspan x="370.732px " y="218.724px ">h</tspan></text><text x="20px" y="239.724px">the <tspan x="48.976px 57.054px " y="239.724px 239.724px ">op</tspan>en <tspan x="89.026px " y="239.724px ">d</tspan>oor <tspan x="127.453px " y="239.724px ">t</tspan>he <tspan x="156.429px " y="239.724px ">s</tspan>ea <tspan x="184.355px " y="239.724px ">a</tspan>lso <tspan x="217.881px " y="239.724px ">i</tspan>s <tspan x="235.643px " y="239.724px ">s</tspan>een. <tspan x="277.234px 281.882px 292.074px " y="239.724px 239.724px 239.724px ">(Th</tspan>e <tspan x="315.394px 321.582px 327.238px 334.434px " y="239.724px 239.724px 239.724px 239.724px ">stat</tspan>ion <tspan x="369.01px " y="239.724px ">i</tspan>s</text><text x="20px" y="260.724px">l<tspan x="24.522px " y="260.724px ">o</tspan>ca<tspan x="46.936px " y="260.724px ">t</tspan>ed <tspan x="71.529px " y="260.724px ">o</tspan>n <tspan x="92.146px " y="260.724px ">t</tspan>he <tspan x="117.48px 125.628px 134.168px " y="260.724px 260.724px 260.724px ">out</tspan>side <tspan x="169.821px " y="260.724px ">s</tspan>hor<tspan x="200.117px 207.397px 210.528px " y="260.724px 260.724px 260.724px ">e o</tspan>f <tspan x="227.295px 237.067px 244.473px " y="260.724px 260.724px 260.724px ">Cap</tspan>e <tspan x="263.536px " y="260.724px ">C</tspan>od, <tspan x="297.984px 305.18px 310.836px 313.967px " y="260.724px 260.724px 260.724px 260.724px ">at t</tspan>he <tspan x="339.302px " y="260.724px ">p</tspan>oin<tspan x="369.752px " y="260.724px ">t</tspan>,</text><text x="20px" y="281.724px">near <tspan x="56.778px " y="281.724px ">t</tspan>he <tspan x="85.045px " y="281.724px ">t</tspan>ip <tspan x="110.077px " y="281.724px ">o</tspan>f <tspan x="129.776px " y="281.724px ">t</tspan>he <tspan x="158.042px 167.814px 175.22px 183.872px 191.012px 195.604px 201.666px 213.426px " y="281.724px 281.724px 281.724px 281.724px 281.724px 281.724px 281.724px 281.724px ">Cape, wh</tspan>er<tspan x="236.456px 243.736px 249.799px " y="281.724px 281.724px 281.724px ">e i</tspan>t <tspan x="266.179px " y="281.724px ">m</tspan>ak<tspan x="295.705px " y="281.724px ">e</tspan>s <tspan x="315.376px " y="281.724px ">t</tspan>ha<tspan x="337.496px 343.152px 349.214px " y="281.724px 281.724px 281.724px ">t ﬁ</tspan>nal</text><text x="20px" y="302.724px">curv<tspan x="50.436px 57.716px 64.353px 76.113px " y="302.724px 302.724px 302.724px 302.724px ">e wh</tspan>ich <tspan x="112.849px 118.127px " y="302.724px 302.724px ">fo</tspan>rms <tspan x="159.512px " y="302.724px ">t</tspan>he <tspan x="188.353px 196.781px 203.263px 211.201px " y="302.724px 302.724px 302.724px 302.724px ">Prov</tspan>ince<tspan x="247.419px 253.005px 261.083px " y="302.724px 302.724px 302.724px ">tow</tspan>n <tspan x="289.027px " y="302.724px ">H</tspan>ar<tspan x="314.675px " y="302.724px ">b</tspan>or<tspan x="337.313px " y="302.724px ">.</tspan>) <tspan x="353.26px 363.452px " y="302.724px 302.724px ">Th</tspan>e</text><text x="20px" y="323.724px">d<tspan x="28.456px " y="323.724px ">u</tspan>nes <tspan x="63.221px 70.767px 77.249px 84.529px 87.542px " y="323.724px 323.724px 323.724px 323.724px 323.724px ">are h</tspan>ills <tspan x="120.138px " y="323.724px ">a</tspan>nd <tspan x="148.561px 154.749px " y="323.724px 323.724px ">st</tspan>rang<tspan x="191.373px 198.653px 201.666px 206.944px " y="323.724px 323.724px 323.724px 323.724px ">e fo</tspan>rms <tspan x="244.705px " y="323.724px ">o</tspan>f <tspan x="261.354px " y="323.724px ">s</tspan>and <tspan x="296.106px " y="323.724px ">o</tspan>n <tspan x="316.605px 328.365px " y="323.724px 323.724px ">wh</tspan>ich, <tspan x="366.07px " y="323.724px ">i</tspan>n</text><path d="M160.506,344.724l3.696,0l0,-0.658l-0.756,-0.14c-0.378,-0.084 -0.406,-0.182 -0.406,-0.616l0,-4.83l3.332,0l0,4.816c0,0.42 -0.028,0.602 -0.434,0.672l-0.602,0.112l0,0.644l4.004,0l0,-0.672l-1.218,-0.154c-0.392,-0.056 -0.448,-0.238 -0.448,-0.63l0,-4.76l2.044,0l0,-0.882l-2.044,0l0,-1.288c0,-1.316 0.392,-1.834 1.218,-1.834c0.21,0 0.546,0.056 0.756,0.168c-0.28,0.476 -0.35,0.63 -0.35,0.826c0,0.308 0.238,0.546 0.77,0.546c0.546,0 0.84,-0.448 0.84,-0.924c0,-0.868 -0.882,-1.344 -1.96,-1.344c-1.008,0 -1.736,0.462 -2.156,1.274c-0.588,-0.672 -1.288,-0.91 -2.044,-0.91c-1.456,0 -3.01,1.008 -3.01,3.374l0,0.126l-1.12,0.14l0,0.7l1.12,0l0,4.732c0,0.42 -0.028,0.644 -0.434,0.714l-0.798,0.126l0,0.672Zm2.534,-7.098l0,-0.644c0,-1.736 0.812,-2.114 1.722,-2.114c0.994,0 1.61,0.7 1.61,2.03l0,0.728l-3.332,0Z"/><text x="20px" y="344.724px">p<tspan x="28.442px " y="344.724px ">l</tspan>aces, <tspan x="70.704px 78.516px 84.998px 93.076px " y="344.724px 344.724px 344.724px 344.724px ">grow</tspan>s <tspan x="116.298px " y="344.724px ">t</tspan>he <tspan x="143.426px 149.614px 155.27px 169.984px 174.908px " y="344.724px 344.724px 344.724px 344.724px 344.724px ">sti b</tspan>each <tspan x="219.326px " y="344.724px ">g</tspan>ra<tspan x="241.166px " y="344.724px ">s</tspan>s—s<tspan x="274.01px " y="344.724px ">t</tspan>rugg<tspan x="310.648px 315.17px " y="344.724px 344.724px ">le</tspan>; <tspan x="331.966px " y="344.724px ">d</tspan>ogg<tspan x="364.124px " y="344.724px ">e</tspan>d</text><text x="20px" y="365.724px">gr<tspan x="34.294px 42.372px " y="365.724px 365.724px ">ow</tspan>ing <tspan x="80.11px 87.656px 95.328px " y="365.724px 365.724px 365.724px ">aga</tspan>ins<tspan x="122.992px 128.648px 132.604px " y="365.724px 365.724px 365.724px ">t o</tspan>dds. <tspan x="172.961px 182.621px 188.277px 192.233px " y="365.724px 365.724px 365.724px 365.724px ">At r</tspan>ig<tspan x="211.189px 220.107px 225.763px 229.719px " y="365.724px 365.724px 365.724px 365.724px ">ht o</tspan>f <tspan x="247.311px " y="365.724px ">t</tspan>he <tspan x="273.472px " y="365.724px ">b</tspan>ig <tspan x="298.4px " y="365.724px ">s</tspan>liding <tspan x="348.346px " y="365.724px ">d</tspan>oor</text><text x="20px" y="386.724px">is <tspan x="35.334px 42.88px 47.224px " y="386.724px 386.724px 386.724px ">a d</tspan>rift <tspan x="82.522px " y="386.724px ">o</tspan>f <tspan x="100.501px " y="386.724px ">s</tspan>and <tspan x="136.583px " y="386.724px ">a</tspan>nd <tspan x="166.337px " y="386.724px ">t</tspan>he <tspan x="192.885px 198.471px 206.549px 215.201px 219.545px " y="386.724px 386.724px 386.724px 386.724px 386.724px ">top o</tspan>f <tspan x="237.524px " y="386.724px ">b</tspan>uried <tspan x="286.332px " y="386.724px ">b</tspan>each <tspan x="330.17px " y="386.724px ">g</tspan>ra<tspan x="352.01px " y="386.724px ">s</tspan>s <tspan x="369.01px " y="386.724px ">i</tspan>s</text><text x="20px" y="407.724px">seen <tspan x="54.924px " y="407.724px ">o</tspan>n <tspan x="77.179px " y="407.724px ">t</tspan>his. <tspan x="112.523px 122.715px " y="407.724px 407.724px ">Th</tspan>er<tspan x="145.746px 153.026px 157.794px " y="407.724px 407.724px 407.724px ">e i</tspan>s <tspan x="173.552px 181.098px 185.867px " y="407.724px 407.724px 407.724px ">a d</tspan>oor <tspan x="222.289px 226.811px " y="407.724px 407.724px ">le</tspan>ft, <tspan x="254.526px " y="407.724px ">a</tspan>nd <tspan x="284.704px 291.9px 297.556px 302.325px " y="407.724px 407.724px 407.724px 407.724px ">at r</tspan>ig<tspan x="321.281px 330.199px 335.855px 340.623px " y="407.724px 407.724px 407.724px 407.724px ">ht o</tspan>f <tspan x="359.028px " y="407.724px ">b</tspan>ig</text><text x="20px" y="428.724px">sliding <tspan x="70.727px " y="428.724px ">d</tspan>oor <tspan x="107.119px " y="428.724px ">i</tspan>s <tspan x="122.846px 130.392px 135.13px " y="428.724px 428.724px 428.724px ">a s</tspan>lan<tspan x="162.584px " y="428.724px ">t</tspan>ing <tspan x="194.719px 206.619px " y="428.724px 428.724px ">wa</tspan>ll. <tspan x="232.889px " y="428.724px ">D</tspan>oor <tspan x="271.534px " y="428.724px ">i</tspan>n <tspan x="290.202px " y="428.724px ">t</tspan>his <tspan x="320.853px " y="428.724px ">i</tspan>s <tspan x="336.581px 343.917px " y="428.724px 428.724px ">aj</tspan>ar <tspan x="367.148px 374.344px " y="428.724px 428.724px ">at</tspan></text><text x="20px" y="449.724px">rise of curtain, and thr<tspan x="170.789px " y="449.724px ">o</tspan>ug<tspan x="195.485px " y="449.724px ">h</tspan> this door <tspan class="caps" style="fill: red; font-feature-settings: 'smcp', 'c2sc'">BRADFORD</tspan> and</text><text x="20px" y="470.724px">T<tspan x="30.192px " y="470.724px ">O</tspan>NY<tspan x="61.146px 65.738px 68.392px " y="470.724px 470.724px 470.724px ">, l</tspan>if<tspan x="82.994px " y="470.724px ">e</tspan>-sa<tspan x="108.544px 116.482px " y="470.724px 470.724px ">ve</tspan>rs, <tspan x="143.957px 151.503px 157.985px 165.265px 167.919px " y="470.724px 470.724px 470.724px 470.724px 470.724px ">are s</tspan>een <tspan x="200.728px " y="470.724px ">b</tspan>ending <tspan x="258.766px 266.704px 274.642px " y="470.724px 470.724px 470.724px ">ove</tspan>r <tspan x="291.197px 298.743px 301.397px " y="470.724px 470.724px 470.724px ">a m</tspan>an<tspan x="331.231px 334.703px 341.031px 343.684px " y="470.724px 470.724px 470.724px 470.724px ">’s b</tspan>od<tspan x="368.604px 375.408px " y="470.724px 470.724px ">y,</tspan></text><text x="20px" y="491.724px">a<tspan x="27.196px " y="491.724px ">t</tspan>tem<tspan x="59.158px 67.6px " y="491.724px 491.724px ">pt</tspan>ing <tspan x="99.489px " y="491.724px ">t</tspan>o <tspan x="117.783px 124.265px 131.545px 137.733px " y="491.724px 491.724px 491.724px 491.724px ">rest</tspan>or<tspan x="158.019px 165.299px 169.79px 176.272px " y="491.724px 491.724px 491.724px 491.724px ">e re</tspan>spira<tspan x="217.012px " y="491.724px ">t</tspan>ion. <tspan x="253.968px 264.16px " y="491.724px 491.724px ">Th</tspan>e <tspan x="285.199px 292.199px 299.605px 308.047px " y="491.724px 491.724px 491.724px 491.724px ">capt</tspan>ain <tspan x="339.669px " y="491.724px ">o</tspan>f <tspan x="357.796px " y="491.724px ">t</tspan>he</text><text x="20px" y="512.724px">lif<tspan x="34.602px " y="512.724px ">e</tspan>-sa<tspan x="60.152px 68.09px " y="512.724px 512.724px ">ve</tspan>rs <tspan x="91.898px " y="512.724px ">c</tspan>omes <tspan x="137.811px 142.473px 151.391px " y="512.724px 512.724px 512.724px ">int</tspan>o <tspan x="168.773px " y="512.724px ">v</tspan>ie<tspan x="188.863px 200.903px 204.48px 212.628px 221.168px " y="512.724px 512.724px 512.724px 512.724px 512.724px ">w out</tspan>side <tspan x="257.267px " y="512.724px ">t</tspan>he <tspan x="283.049px " y="512.724px ">b</tspan>ig <tspan x="307.598px 315.676px " y="512.724px 512.724px ">op</tspan>en <tspan x="344.454px " y="512.724px ">d</tspan>oor<tspan x="375.408px " y="512.724px ">,</tspan></text><text x="20px" y="533.724px">a<tspan x="27.196px 32.852px 35.437px 39.959px " y="533.724px 533.724px 533.724px 533.724px ">t le</tspan>ft; <tspan x="65.49px " y="533.724px ">h</tspan>e <tspan x="84.622px 92.028px 100.54px " y="533.724px 533.724px 533.724px ">app</tspan>ears <tspan x="139.553px " y="533.724px ">t</tspan>o <tspan x="155.942px 165.21px 172.196px 180.134px 187.414px 189.999px " y="533.724px 533.724px 533.724px 533.724px 533.724px 533.724px ">have b</tspan>een <tspan x="224.91px 233.828px " y="533.724px 533.724px ">hu</tspan>rrying, <tspan x="292.93px " y="533.724px ">p</tspan>eers <tspan x="331.677px " y="533.724px ">i</tspan>n, <tspan x="352.784px " y="533.724px ">s</tspan>ees</text><text x="20px" y="554.724px">the <tspan x="47.372px " y="554.724px ">m</tspan>en, <tspan x="87.26px 94.792px " y="554.724px 554.724px ">go</tspan>es <tspan x="121.785px 130.059px " y="554.724px 554.724px ">qu</tspan>ickl<tspan x="163.351px 171.415px 176.583px " y="554.724px 554.724px 554.724px ">y t</tspan>o <tspan x="195.555px " y="554.724px ">t</tspan>hem. <tspan x="241.169px 251.361px " y="554.724px 554.724px ">Th</tspan>er<tspan x="274.391px 281.671px 286.839px " y="554.724px 554.724px 554.724px ">e i</tspan>s <tspan x="302.996px 310.542px 315.71px " y="554.724px 554.724px 554.724px ">a d</tspan>oor <tspan x="352.532px 357.054px " y="554.724px 554.724px ">le</tspan>ft,</text><text x="20px" y="575.724px">and <tspan x="48.613px 55.809px 61.465px 64.667px " y="575.724px 575.724px 575.724px 575.724px ">at r</tspan>ig<tspan x="83.623px 92.541px 98.197px 101.4px " y="575.724px 575.724px 575.724px 575.724px ">ht o</tspan>f <tspan x="118.238px " y="575.724px ">b</tspan>ig <tspan x="142.413px " y="575.724px ">s</tspan>liding <tspan x="191.605px " y="575.724px ">d</tspan>oor <tspan x="226.462px " y="575.724px ">i</tspan>s <tspan x="240.654px 248.2px 251.403px " y="575.724px 575.724px 575.724px ">a s</tspan>lan<tspan x="278.857px " y="575.724px ">t</tspan>ing <tspan x="309.457px 321.357px " y="575.724px 575.724px ">wa</tspan>ll. <tspan x="346.092px " y="575.724px ">D</tspan>oor</text><text x="20px" y="596.724px">in <tspan x="37.511px " y="596.724px ">t</tspan>his <tspan x="67.005px " y="596.724px ">i</tspan>s <tspan x="81.576px 88.912px " y="596.724px 596.724px ">aj</tspan>ar <tspan x="110.986px 118.182px 123.838px 127.419px " y="596.724px 596.724px 596.724px 596.724px ">at r</tspan>ise <tspan x="155.891px " y="596.724px ">o</tspan>f <tspan x="173.108px " y="596.724px ">c</tspan>urtain, <tspan x="230.91px " y="596.724px ">a</tspan>nd <tspan x="259.901px " y="596.724px ">t</tspan>hr<tspan x="281.307px " y="596.724px ">o</tspan>ug<tspan x="306.003px 315.271px 318.851px " y="596.724px 596.724px 596.724px ">h t</tspan>his <tspan x="348.346px " y="596.724px ">d</tspan>oor</text><text x="20px" y="617.724px">BRADFORD <tspan x="105.72px " y="617.724px ">a</tspan>nd <tspan x="135.805px 145.997px " y="617.724px 617.724px ">TO</tspan>NY<tspan x="176.951px 181.543px 186.217px " y="617.724px 617.724px 617.724px ">, l</tspan>if<tspan x="200.819px " y="617.724px ">e</tspan>-sa<tspan x="226.369px 234.307px " y="617.724px 617.724px ">ve</tspan>rs, <tspan x="263.803px 271.349px 277.831px 285.111px 289.786px " y="617.724px 617.724px 617.724px 617.724px 617.724px ">are s</tspan>een <tspan x="324.616px " y="617.724px ">b</tspan>ending</text><text x="20px" y="638.724px">o<tspan x="27.938px 35.876px " y="638.724px 638.724px ">ve</tspan>r <tspan x="54.167px 61.713px 66.101px " y="638.724px 638.724px 638.724px ">a m</tspan>an<tspan x="95.935px 99.407px 105.735px 110.124px " y="638.724px 638.724px 638.724px 638.724px ">’s b</tspan>od<tspan x="135.044px 141.848px 146.44px 150.828px 158.024px " y="638.724px 638.724px 638.724px 638.724px 638.724px ">y, at</tspan>tem<tspan x="189.986px 198.428px " y="638.724px 638.724px ">pt</tspan>ing <tspan x="230.215px " y="638.724px ">t</tspan>o <tspan x="248.407px 254.889px 262.169px 268.357px " y="638.724px 638.724px 638.724px 638.724px ">rest</tspan>or<tspan x="288.643px 295.923px 300.312px 306.794px " y="638.724px 638.724px 638.724px 638.724px ">e re</tspan>spira<tspan x="347.534px " y="638.724px ">t</tspan>ion.</text>


</g><g><rect x="0" y="540" width="400" height="60" style="fill:#fff;"/><path d="M400,600l-400,0l0,-60l400,0l0,60Zm-399,-59l0,58l398,0l0,-58l-398,0Z" style="fill:#e4e4e4;"/></g><rect x="20" y="575" width="360" height="10" style="fill:#e4e4e4;"/><rect x="20" y="575" width="100" height="10" style="fill:#787878;"/><g transform="matrix(1,0,0,1,-100,10)"><text x="281.035px" y="552.67px" style="font-family:'LiterataBook-Regular', 'Literata Book';font-size:10px;">55</text><text x="293.495px" y="552.67px" style="font-family:'LiterataBook-Italic', 'Literata Book';font-style:italic;font-size:10px;">of</text><text x="304.555px" y="552.67px" style="font-family:'LiterataBook-Regular', 'Literata Book';font-size:10px;">31<tspan x="313.385px " y="552.67px ">7</tspan></text></g></svg>
