<?xml version="1.0" encoding="UTF-8" standalone="no"?>
<!DOCTYPE svg PUBLIC "-//W3C//DTD SVG 1.1//EN" "http://www.w3.org/Graphics/SVG/1.1/DTD/svg11.dtd">
<svg width="100%" height="100%" viewBox="0 0 400 600" version="1.1" xmlns="http://www.w3.org/2000/svg" xmlns:xlink="http://www.w3.org/1999/xlink" xml:space="preserve" style="fill-rule:evenodd;clip-rule:evenodd;stroke-linejoin:round;stroke-miterlimit:1.41421;">
    <g transform="matrix(1,0,0,1,0,-20)">
        <text x="145.109px" y="53.788px" style="font-family:'LiterataBook-Regular', 'Literata Book';font-size:18px;">FOREWORD</text>
        <text x="20px" y="95.788px" style="font-family:'LiterataBook-Regular', 'Literata Book';font-size:14px;">Lysistrata is the <tspan x="132.588px " y="95.788px ">g</tspan>reatest work by <tspan x="250.817px " y="95.788px ">A</tspan>ristophanes. This</text>
        <text x="20px" y="116.788px" style="font-family:'LiterataBook-Regular', 'Literata Book';font-size:14px;">blank <tspan x="65.984px " y="116.788px ">a</tspan>nd <tspan x="99.074px " y="116.788px ">r</tspan>ash <tspan x="136.379px " y="116.788px ">s</tspan>tatement <tspan x="211.399px " y="116.788px ">i</tspan>s <tspan x="230.069px " y="116.788px ">m</tspan>ade <tspan x="274.667px " y="116.788px ">t</tspan>hat <tspan x="310.124px " y="116.788px ">i</tspan>t <tspan x="328.122px " y="116.788px ">m</tspan>ay <tspan x="364.222px " y="116.788px ">b</tspan>e</text>
        <text x="20px" y="137.788px" style="font-family:'LiterataBook-Regular', 'Literata Book';font-size:14px;">rejected. But <tspan x="113.202px " y="137.788px ">ﬁ</tspan>rst let <tspan x="169.499px " y="137.788px ">i</tspan>t <tspan x="185.454px " y="137.788px ">b</tspan>e <tspan x="206.869px " y="137.788px ">u</tspan>nderstood that <tspan x="323.366px 328.98px 334.617px " y="137.788px 137.788px 137.788px ">I d</tspan>o <tspan x="357.068px " y="137.788px ">n</tspan>ot</text>
        <text x="20px" y="158.788px" style="font-family:'LiterataBook-Regular', 'Literata Book';font-size:14px;">mean it is a <tspan x="101.227px " y="158.788px ">b</tspan>etter written work than the <tspan x="300.299px " y="158.788px ">B</tspan>irds or the</text>
        <text x="20px" y="179.788px" style="font-family:'LiterataBook-Regular', 'Literata Book';font-size:14px;">Frogs, or that (t<tspan x="121.002px " y="179.788px ">o</tspan> descend to the scale <tspan x="263.276px " y="179.788px ">o</tspan>f values that will</text>
        <text x="20px" y="200.788px" style="font-family:'LiterataBook-Regular', 'Literata Book';font-size:14px;">be naturally imputed to me) it has <tspan x="251.68px " y="200.788px ">a</tspan>ny more appeal to</text>
        <text x="20px" y="221.788px" style="font-family:'LiterataBook-Regular', 'Literata Book';font-size:14px;">the <tspan x="54.954px " y="221.788px ">c</tspan>ollectors <tspan x="132.86px " y="221.788px ">o</tspan>f <tspan x="159.246px " y="221.788px ">“</tspan>curious <tspan x="229.452px " y="221.788px ">l</tspan>iterature” <tspan x="313.308px " y="221.788px ">t</tspan>han <tspan x="357.796px " y="221.788px ">t</tspan>he</text>
        <text x="20px" y="242.788px" style="font-family:'LiterataBook-Regular', 'Literata Book';font-size:14px;">Ecclesiazusae or the Thesmophoriazusae. On the mere</text>
        <text x="20px" y="263.788px" style="font-family:'LiterataBook-Regular', 'Literata Book';font-size:14px;">grounds of taste I can see <tspan x="192.366px " y="263.788px ">a</tspan>n at least equally good case</text>
        <text x="20px" y="284.788px" style="font-family:'LiterataBook-Regular', 'Literata Book';font-size:14px;">made <tspan x="66.255px " y="284.788px ">o</tspan>ut <tspan x="97.935px " y="284.788px ">f</tspan>or <tspan x="127.39px " y="284.788px ">t</tspan>he <tspan x="158.93px " y="284.788px ">B</tspan>irds. <tspan x="208.237px " y="284.788px ">T</tspan>hat <tspan x="249.885px " y="284.788px ">b</tspan>rightly <tspan x="313.626px " y="284.788px ">p</tspan>lumaged</text>
        <text x="20px" y="305.788px" style="font-family:'LiterataBook-Regular', 'Literata Book';font-size:14px;">fantasy has <tspan x="102.245px " y="305.788px ">a</tspan>n aerial <tspan x="167.564px " y="305.788px ">w</tspan>it and <tspan x="225.52px " y="305.788px ">c</tspan>olour all <tspan x="295.683px " y="305.788px ">i</tspan>ts own. <tspan x="356.564px " y="305.788px ">B</tspan>ut</text>
        <text x="20px" y="326.788px" style="font-family:'LiterataBook-Regular', 'Literata Book';font-size:14px;">there are certain works <tspan x="175.469px " y="326.788px ">i</tspan>n which a man ﬁnds <tspan x="313.917px " y="326.788px ">h</tspan>imself at</text>
        <text x="20px" y="347.788px" style="font-family:'LiterataBook-Regular', 'Literata Book';font-size:14px;">an <tspan x="46.84px " y="347.788px ">a</tspan>ngle <tspan x="93.155px " y="347.788px ">o</tspan>f <tspan x="116.817px " y="347.788px ">v</tspan>ision <tspan x="168.269px " y="347.788px ">w</tspan>here <tspan x="220.365px " y="347.788px ">t</tspan>here <tspan x="266.358px " y="347.788px ">i</tspan>s <tspan x="287.374px " y="347.788px ">a</tspan>n <tspan x="314.214px " y="347.788px ">e</tspan>specially</text>
        <text x="20px" y="368.788px" style="font-family:'LiterataBook-Regular', 'Literata Book';font-size:14px;">felicitous <tspan x="93.435px " y="368.788px ">u</tspan>nion <tspan x="144.891px " y="368.788px ">o</tspan>f <tspan x="169.69px " y="368.788px ">t</tspan>he <tspan x="203.057px " y="368.788px ">a</tspan>esthetic <tspan x="274.547px " y="368.788px ">a</tspan>nd <tspan x="311.12px " y="368.788px ">e</tspan>motional</text>
        <text x="20px" y="389.788px" style="font-family:'LiterataBook-Regular', 'Literata Book';font-size:14px;">elements which <tspan x="134.415px " y="389.788px ">c</tspan>onstitute the <tspan x="236.384px " y="389.788px ">b</tspan>asic <tspan x="276.239px " y="389.788px ">q</tspan>ualities <tspan x="340.145px " y="389.788px ">o</tspan>f <tspan x="359.742px " y="389.788px ">h</tspan>is</text>
        <text x="20px" y="410.788px" style="font-family:'LiterataBook-Regular', 'Literata Book';font-size:14px;">uniqueness. We recognize these <tspan x="232.536px " y="410.788px ">w</tspan>orks as being welded</text>
        <text x="20px" y="431.788px" style="font-family:'LiterataBook-Regular', 'Literata Book';font-size:14px;">into a strange unity, as having a homogeneous texture</text>
        <text x="20px" y="452.788px" style="font-family:'LiterataBook-Regular', 'Literata Book';font-size:14px;">of <tspan x="41.691px " y="452.788px ">e</tspan>cstasy <tspan x="97.527px " y="452.788px ">o</tspan>ver <tspan x="135.36px " y="452.788px ">t</tspan>hem <tspan x="179.198px " y="452.788px ">t</tspan>hat <tspan x="215.029px " y="452.788px ">s</tspan>urpasses <tspan x="287.231px " y="452.788px ">a</tspan>ny <tspan x="319.674px " y="452.788px ">a</tspan>esthetic</text>
        <text x="20px" y="473.788px" style="font-family:'LiterataBook-Regular', 'Literata Book';font-size:14px;">surface of harmonic colour, though that harmon<tspan x="342.489px " y="473.788px ">y</tspan> also</text>
        <text x="20px" y="494.788px" style="font-family:'LiterataBook-Regular', 'Literata Book';font-size:14px;">is understood <tspan x="117.168px " y="494.788px ">b</tspan>y the <tspan x="164.384px " y="494.788px ">d</tspan>eeper welling of <tspan x="286.651px " y="494.788px ">i</tspan>magery from</text>
        <text x="20px" y="515.788px" style="font-family:'LiterataBook-Regular', 'Literata Book';font-size:14px;">the core <tspan x="80.962px " y="515.788px ">o</tspan>f creative <tspan x="157.939px " y="515.788px ">e</tspan>xaltation. And <tspan x="268.531px " y="515.788px ">I</tspan> think <tspan x="321.386px " y="515.788px ">t</tspan>hat this</text>
        <text x="20px" y="536.788px" style="font-family:'LiterataBook-Regular', 'Literata Book';font-size:14px;">occurs <tspan x="71.574px " y="536.788px ">i</tspan>n <tspan x="93.105px " y="536.788px ">L</tspan>ysistrata. <tspan x="171.223px " y="536.788px ">T</tspan>he <tspan x="205.563px " y="536.788px ">i</tspan>ntellectual <tspan x="289.464px " y="536.788px ">a</tspan>nd <tspan x="322.474px " y="536.788px ">s</tspan>piritual</text>
        <text x="20px" y="557.788px" style="font-family:'LiterataBook-Regular', 'Literata Book';font-size:14px;">tendrils of <tspan x="96.368px " y="557.788px ">t</tspan>he poem <tspan x="166.029px " y="557.788px ">a</tspan>re more <tspan x="232.625px " y="557.788px ">t</tspan>ruly interwoven, the</text>
        <text x="20px" y="578.788px" style="font-family:'LiterataBook-Regular', 'Literata Book';font-size:14px;">operation of their centres more nearly uniﬁed; and <tspan x="365.454px " y="578.788px ">s</tspan>o</text>
    </g>
</svg>
