<?xml version="1.0" encoding="UTF-8" standalone="no"?>
<!DOCTYPE svg PUBLIC "-//W3C//DTD SVG 1.1//EN" "http://www.w3.org/Graphics/SVG/1.1/DTD/svg11.dtd">
<svg width="100%" height="100%" viewBox="0 0 400 600" version="1.1" xmlns="http://www.w3.org/2000/svg" xmlns:xlink="http://www.w3.org/1999/xlink" xml:space="preserve" style="fill-rule:evenodd;clip-rule:evenodd;stroke-linejoin:round;stroke-miterlimit:1.41421;">
    <rect id="Rectangle" x="0" y="0" width="400" height="600" style="fill:rgb(201,109,113);"/>
    <path d="M381.043,306.233C381.043,131.857 135.226,153.366 135.226,44.285C135.226,0.499 165.953,-29.46 226.639,-29.46C283.484,-29.46 299.616,-8.719 284.252,23.545L268.121,56.576C277.339,66.562 298.848,78.085 322.661,78.085C351.852,78.085 380.274,57.344 380.274,22.776C380.274,-45.591 314.211,-84 230.48,-84C97.586,-84 49.191,-1.037 49.191,71.171C49.191,245.547 288.093,215.588 288.093,327.742C288.093,389.964 245.844,418.387 186.694,418.387C119.863,418.387 115.254,392.269 129.849,363.846L141.372,340.801C132.154,327.742 106.804,312.379 81.454,312.379C43.813,312.379 20,338.497 20,376.905C20,429.141 73.772,476 177.476,476C292.702,476 381.043,406.096 381.043,306.233Z" style="fill:none;stroke:white;stroke-width:1px;"/>
    <path d="M381.043,306.233C381.043,131.857 135.226,153.366 135.226,44.285C135.226,0.499 165.953,-29.46 226.639,-29.46C283.484,-29.46 299.616,-8.719 284.252,23.545L268.121,56.576C277.339,66.562 298.848,78.085 322.661,78.085C351.852,78.085 380.274,57.344 380.274,22.776C380.274,-45.591 314.211,-84 230.48,-84C97.586,-84 49.191,-1.037 49.191,71.171C49.191,245.547 288.093,215.588 288.093,327.742C288.093,389.964 245.844,418.387 186.694,418.387C119.863,418.387 115.254,392.269 129.849,363.846L141.372,340.801C132.154,327.742 106.804,312.379 81.454,312.379C43.813,312.379 20,338.497 20,376.905C20,429.141 73.772,476 177.476,476C292.702,476 381.043,406.096 381.043,306.233Z" style="fill:none;stroke:white;stroke-width:1px;"/>
    <path d="M381.043,306.233C381.043,131.857 135.226,153.366 135.226,44.285C135.226,0.499 165.953,-29.46 226.639,-29.46C283.484,-29.46 299.616,-8.719 284.252,23.545L268.121,56.576C277.339,66.562 298.848,78.085 322.661,78.085C351.852,78.085 380.274,57.344 380.274,22.776C380.274,-45.591 314.211,-84 230.48,-84C97.586,-84 49.191,-1.037 49.191,71.171C49.191,245.547 288.093,215.588 288.093,327.742C288.093,389.964 245.844,418.387 186.694,418.387C119.863,418.387 115.254,392.269 129.849,363.846L141.372,340.801C132.154,327.742 106.804,312.379 81.454,312.379C43.813,312.379 20,338.497 20,376.905C20,429.141 73.772,476 177.476,476C292.702,476 381.043,406.096 381.043,306.233Z" style="fill:none;stroke:white;stroke-width:1px;"/>
    <path d="M381.043,410.233C381.043,235.857 135.226,257.366 135.226,148.285C135.226,104.499 165.953,74.54 226.639,74.54C283.484,74.54 299.616,95.281 284.252,127.545L268.121,160.576C277.339,170.562 298.848,182.085 322.661,182.085C351.852,182.085 380.274,161.344 380.274,126.776C380.274,58.409 314.211,20 230.48,20C97.586,20 49.191,102.963 49.191,175.171C49.191,349.547 288.093,319.588 288.093,431.742C288.093,493.964 245.844,522.387 186.694,522.387C119.863,522.387 115.254,496.269 129.849,467.846L141.372,444.801C132.154,431.742 106.804,416.379 81.454,416.379C43.813,416.379 20,442.497 20,480.905C20,533.141 73.772,580 177.476,580C292.702,580 381.043,510.096 381.043,410.233Z" style="fill:none;stroke:white;stroke-width:1px;"/>
    <path d="M381.043,410.233C381.043,235.857 135.226,257.366 135.226,148.285C135.226,104.499 165.953,74.54 226.639,74.54C283.484,74.54 299.616,95.281 284.252,127.545L268.121,160.576C277.339,170.562 298.848,182.085 322.661,182.085C351.852,182.085 380.274,161.344 380.274,126.776C380.274,58.409 314.211,20 230.48,20C97.586,20 49.191,102.963 49.191,175.171C49.191,349.547 288.093,319.588 288.093,431.742C288.093,493.964 245.844,522.387 186.694,522.387C119.863,522.387 115.254,496.269 129.849,467.846L141.372,444.801C132.154,431.742 106.804,416.379 81.454,416.379C43.813,416.379 20,442.497 20,480.905C20,533.141 73.772,580 177.476,580C292.702,580 381.043,510.096 381.043,410.233Z" style="fill:none;stroke:white;stroke-width:1px;"/>
    <path d="M381.043,410.233C381.043,235.857 135.226,257.366 135.226,148.285C135.226,104.499 165.953,74.54 226.639,74.54C283.484,74.54 299.616,95.281 284.252,127.545L268.121,160.576C277.339,170.562 298.848,182.085 322.661,182.085C351.852,182.085 380.274,161.344 380.274,126.776C380.274,58.409 314.211,20 230.48,20C97.586,20 49.191,102.963 49.191,175.171C49.191,349.547 288.093,319.588 288.093,431.742C288.093,493.964 245.844,522.387 186.694,522.387C119.863,522.387 115.254,496.269 129.849,467.846L141.372,444.801C132.154,431.742 106.804,416.379 81.454,416.379C43.813,416.379 20,442.497 20,480.905C20,533.141 73.772,580 177.476,580C292.702,580 381.043,510.096 381.043,410.233Z" style="fill:none;stroke:white;stroke-width:1px;"/>
    <path d="M381.043,514.233C381.043,339.857 135.226,361.366 135.226,252.285C135.226,208.499 165.953,178.54 226.639,178.54C283.484,178.54 299.616,199.281 284.252,231.545L268.121,264.576C277.339,274.562 298.848,286.085 322.661,286.085C351.852,286.085 380.274,265.344 380.274,230.776C380.274,162.409 314.211,124 230.48,124C97.586,124 49.191,206.963 49.191,279.171C49.191,453.547 288.093,423.588 288.093,535.742C288.093,597.964 245.844,626.387 186.694,626.387C119.863,626.387 115.254,600.269 129.849,571.846L141.372,548.801C132.154,535.742 106.804,520.379 81.454,520.379C43.813,520.379 20,546.497 20,584.905C20,637.141 73.772,684 177.476,684C292.702,684 381.043,614.096 381.043,514.233Z" style="fill:none;stroke:white;stroke-width:1px;"/>
    <path d="M381.043,514.233C381.043,339.857 135.226,361.366 135.226,252.285C135.226,208.499 165.953,178.54 226.639,178.54C283.484,178.54 299.616,199.281 284.252,231.545L268.121,264.576C277.339,274.562 298.848,286.085 322.661,286.085C351.852,286.085 380.274,265.344 380.274,230.776C380.274,162.409 314.211,124 230.48,124C97.586,124 49.191,206.963 49.191,279.171C49.191,453.547 288.093,423.588 288.093,535.742C288.093,597.964 245.844,626.387 186.694,626.387C119.863,626.387 115.254,600.269 129.849,571.846L141.372,548.801C132.154,535.742 106.804,520.379 81.454,520.379C43.813,520.379 20,546.497 20,584.905C20,637.141 73.772,684 177.476,684C292.702,684 381.043,614.096 381.043,514.233Z" style="fill:none;stroke:white;stroke-width:1px;"/>
    <path d="M381.043,514.233C381.043,339.857 135.226,361.366 135.226,252.285C135.226,208.499 165.953,178.54 226.639,178.54C283.484,178.54 299.616,199.281 284.252,231.545L268.121,264.576C277.339,274.562 298.848,286.085 322.661,286.085C351.852,286.085 380.274,265.344 380.274,230.776C380.274,162.409 314.211,124 230.48,124C97.586,124 49.191,206.963 49.191,279.171C49.191,453.547 288.093,423.588 288.093,535.742C288.093,597.964 245.844,626.387 186.694,626.387C119.863,626.387 115.254,600.269 129.849,571.846L141.372,548.801C132.154,535.742 106.804,520.379 81.454,520.379C43.813,520.379 20,546.497 20,584.905C20,637.141 73.772,684 177.476,684C292.702,684 381.043,614.096 381.043,514.233Z" style="fill:none;stroke:white;stroke-width:1px;"/>
</svg>
