<?xml version="1.0" encoding="UTF-8" standalone="no"?>
<!DOCTYPE svg PUBLIC "-//W3C//DTD SVG 1.1//EN" "http://www.w3.org/Graphics/SVG/1.1/DTD/svg11.dtd">
<svg width="100%" height="100%" viewBox="0 0 400 600" version="1.1" xmlns="http://www.w3.org/2000/svg" xmlns:xlink="http://www.w3.org/1999/xlink" xml:space="preserve" style="fill-rule:evenodd;clip-rule:evenodd;stroke-linejoin:round;stroke-miterlimit:1.41421;">
        <g style={{ fontSize: '16px', lineHeight: '14px' }}>
            <text x="20px" y="52.272px" className="italic">Sanc.</text>
            <text x="62.912px" y="52.272px">O Ceo nes<tspan x="136.8px " y="52.272px ">t</tspan>e l<tspan x="159.872px 170.016px 178.784px " y="52.272px 52.272px 52.272px ">uga</tspan>r f<tspan x="204.208px " y="52.272px ">a</tspan>z q<tspan x="233.264px " y="52.272px ">u</tspan>e eu t<tspan x="282.896px " y="52.272px ">e</tspan> encon<tspan x="340.832px 347.296px 354.704px " y="52.272px 52.272px 52.272px ">tre</tspan>:</text>
            <text x="20px" y="78.272px">H<tspan x="33.28px " y="78.272px ">e</tspan> pr<tspan x="62.096px " y="78.272px ">e</tspan>ciso<tspan x="100.208px " y="78.272px ">,</tspan> Senhora, com franq<tspan x="260.464px " y="78.272px ">u</tspan>eza</text>
            <text x="20px" y="104.272px">M<tspan x="35.728px 45.12px 52.192px " y="104.272px 104.272px 104.272px ">ost</tspan>rar-te os imminen<tspan x="196.608px " y="104.272px ">t</tspan>es pr<tspan x="239.04px " y="104.272px ">e</tspan>cipicios,</text>
            <text x="20px" y="130.272px">Que só t<tspan x="80.256px " y="130.272px ">u</tspan>a virt<tspan x="130.896px " y="130.272px ">u</tspan>de e<tspan x="170.464px " y="130.272px ">v</tspan>itar póde<tspan x="248.384px " y="130.272px ">.</tspan></text>
            <text x="20px" y="156.272px">O Principe despr<tspan x="146.192px " y="156.272px ">e</tspan>za os meus c<tspan x="246.192px " y="156.272px ">o</tspan>nse<tspan x="281.488px " y="156.272px ">l</tspan>hos,</text>
            <text x="20px" y="182.272px">M<tspan x="35.728px " y="182.272px ">e</tspan>us r<tspan x="71.952px 81.344px 89.952px " y="182.272px 182.272px 182.272px ">ogo</tspan>s não a<tspan x="149.808px " y="182.272px ">t</tspan>tende<tspan x="199.552px " y="182.272px ">,</tspan> nem já céde</text>
            <text x="20px" y="208.272px">Ás lagrima<tspan x="101.952px " y="208.272px ">s</tspan> d&apos;h<tspan x="136.4px " y="208.272px ">u</tspan>m v<tspan x="174.336px 182.416px " y="208.272px 208.272px ">el</tspan>ho q<tspan x="220.384px " y="208.272px ">u</tspan>e a<tspan x="250.512px 260.4px 267.808px " y="208.272px 208.272px 208.272px ">pre</tspan>cia,</text>
            <text x="20px" y="234.272px">M<tspan x="35.728px " y="234.272px ">a</tspan>is do q<tspan x="91.984px " y="234.272px ">u</tspan>e a pr<tspan x="142.768px 152px " y="234.272px 234.272px ">op</tspan>ria vida, a sua g<tspan x="278.096px 283.264px " y="234.272px 234.272px ">lo</tspan>ria:</text>
            <text x="20px" y="260.272px">D<tspan x="32.08px 36.08px 46.272px " y="260.272px 260.272px 260.272px ">&apos;hu</tspan>m v<tspan x="84.208px 92.288px " y="260.272px 260.272px ">el</tspan>ho<tspan x="117.44px " y="260.272px ">,</tspan> q<tspan x="135.344px " y="260.272px ">u</tspan>e incum<tspan x="206.112px " y="260.272px ">b</tspan>ido de ed<tspan x="282.896px " y="260.272px ">u</tspan>ca-l<tspan x="320.496px 329.728px " y="260.272px 260.272px ">o,</tspan></text>
            <text x="20px" y="286.272px">Sem<tspan x="53.488px 63.376px 70.784px " y="286.272px 286.272px 286.272px ">pre</tspan> a n<tspan x="104.32px " y="286.272px ">ú</tspan>a v<tspan x="135.36px 143.68px 151.088px " y="286.272px 286.272px 286.272px ">erd</tspan>ade an<tspan x="209.6px " y="286.272px ">t</tspan>e os se<tspan x="262.8px " y="286.272px ">u</tspan>s o<tspan x="292.528px " y="286.272px ">l</tspan>hos</text>
            <text x="20px" y="312.272px">T<tspan x="30.688px " y="312.272px ">e</tspan>m f<tspan x="63.76px " y="312.272px ">e</tspan>ito a<tspan x="104.848px 114.576px " y="312.272px 312.272px ">pp</tspan>ar<tspan x="140.496px " y="312.272px ">e</tspan>cer<tspan x="171.824px " y="312.272px ">,</tspan> buscando sem<tspan x="287.824px 297.712px 305.12px " y="312.272px 312.272px 312.272px ">pre</tspan></text>
            <text x="20px" y="338.272px">Af<tspan x="37.792px 46.256px 53.328px " y="338.272px 338.272px 338.272px ">ast</tspan>ar-lhe a lison<tspan x="158.544px " y="338.272px ">j</tspan>a dos ou<tspan x="223.936px " y="338.272px ">v</tspan>idos,</text>
            <text x="20px" y="364.272px">Esse da<tspan x="74.464px " y="364.272px ">s</tspan> Cortes pessimo v<tspan x="213.504px " y="364.272px ">e</tspan>neno<tspan x="260.56px " y="364.272px ">,</tspan></text>
            <text x="20px" y="390.272px">Que os coraç<tspan x="115.376px " y="390.272px ">õ</tspan>es dos Principes corr<tspan x="280.544px 289.936px 305.296px 315.184px 323.344px " y="390.272px 390.272px 390.272px 390.272px 390.272px ">ompe.</tspan></text>
            <text x="20px" y="416.272px">Seu caract<tspan x="98.592px " y="416.272px ">e</tspan>r vio<tspan x="141.632px 146.8px 155.12px 165.312px 171.696px 180.928px " y="416.272px 416.272px 416.272px 416.272px 416.272px 416.272px ">lento,</tspan> ca<tspan x="205.84px " y="416.272px ">p</tspan>ric<tspan x="236.512px " y="416.272px ">h</tspan>oso<tspan x="272.96px " y="416.272px ">,</tspan></text>
            <text x="20px" y="442.272px">Ag<tspan x="40.368px " y="442.272px ">o</tspan>ra por amor mais inﬂammado<tspan x="277.216px " y="442.272px ">,</tspan></text>
            <text x="20px" y="468.272px">J<tspan x="28.72px " y="468.272px ">á</tspan> não deixa do<tspan x="135.456px " y="468.272px ">b</tspan>rar-se ás minha<tspan x="262.896px " y="468.272px ">s</tspan> v<tspan x="282.4px " y="468.272px ">o</tspan>zes;</text>
            <text x="20px" y="494.272px">Cég<tspan x="48.256px " y="494.272px ">o</tspan> r<tspan x="68.256px " y="494.272px ">e</tspan>sis<tspan x="96.208px " y="494.272px ">t</tspan>e aos Pa<tspan x="160.416px " y="494.272px ">t</tspan>ernaes pr<tspan x="237.952px " y="494.272px ">e</tspan>ceit<tspan x="274.224px " y="494.272px ">o</tspan>s;</text>
            <text x="20px" y="520.272px">H<tspan x="33.28px " y="520.272px ">e</tspan> necessario pois q<tspan x="173.024px " y="520.272px ">u</tspan>e a o<tspan x="215.424px " y="520.272px ">b</tspan>edecer-lhe</text>
            <text x="20px" y="546.272px">O r<tspan x="43.072px " y="546.272px ">e</tspan>so<tspan x="67.776px 72.704px 81.936px 90.4px " y="546.272px 546.272px 546.272px 546.272px ">lvas</tspan> t<tspan x="107.136px " y="546.272px ">u</tspan> mesma. Bem conhec<tspan x="276.56px " y="546.272px ">e</tspan>s</text>
            <path d="M132.352,572.272L136.576,572.272L136.576,571.52L135.712,571.36C135.28,571.264 135.248,571.152 135.248,570.656L135.248,565.136L139.056,565.136L139.056,570.64C139.056,571.12 139.024,571.328 138.56,571.408L137.872,571.536L137.872,572.272L142.448,572.272L142.448,571.504L141.056,571.328C140.608,571.264 140.544,571.056 140.544,570.608L140.544,565.168L142.88,565.168L142.88,564.16L140.544,564.16L140.544,562.688C140.544,561.184 140.992,560.592 141.936,560.592C142.176,560.592 142.56,560.656 142.8,560.784C142.48,561.328 142.4,561.504 142.4,561.728C142.4,562.08 142.672,562.352 143.28,562.352C143.904,562.352 144.24,561.84 144.24,561.296C144.24,560.304 143.232,559.76 142,559.76C140.848,559.76 140.016,560.288 139.536,561.216C138.864,560.448 138.064,560.176 137.2,560.176C135.536,560.176 133.76,561.328 133.76,564.032L133.76,564.176L132.48,564.336L132.48,565.136L133.76,565.136L133.76,570.544C133.76,571.024 133.728,571.28 133.264,571.36L132.352,571.504L132.352,572.272ZM135.248,564.16L135.248,563.424C135.248,561.44 136.176,561.008 137.216,561.008C138.352,561.008 139.056,561.808 139.056,563.328L139.056,564.16L135.248,564.16Z"/>
            <text x="20px" y="572.272px">Do inﬂexiv<tspan x="103.328px 111.408px " y="572.272px 572.272px ">el</tspan> A<tspan x="143.184px " y="572.272px ">o</tspan>nso o g<tspan x="204.192px " y="572.272px ">e</tspan>nio ir<tspan x="253.76px " y="572.272px ">o</tspan>so<tspan x="279.616px " y="572.272px ">.</tspan></text>
            <text x="20px" y="598.272px">J<tspan x="28.72px " y="598.272px ">á</tspan> tr<tspan x="54.416px " y="598.272px ">e</tspan>s v<tspan x="82.24px " y="598.272px ">e</tspan>zes o tem c<tspan x="170.992px " y="598.272px ">h</tspan>amado á Cort<tspan x="283.168px 291.328px " y="598.272px 598.272px ">e,</tspan></text>
            <text x="20px" y="624.272px">Sem q<tspan x="66.304px " y="624.272px ">u</tspan>e D<tspan x="99.888px " y="624.272px ">.</tspan> Pedr<tspan x="143.6px " y="624.272px ">o</tspan> cum<tspan x="189.696px " y="624.272px ">p</tspan>ra os seus manda<tspan x="327.936px " y="624.272px ">d</tspan>os,</text>
            <text x="20px" y="650.272px">N<tspan x="32.944px " y="650.272px ">e</tspan>m q<tspan x="69.44px " y="650.272px ">u</tspan>eira pesar bem seus ameaç<tspan x="279.264px " y="650.272px ">o</tspan>s:</text>
        </g>
    </g>
</svg>
